<svg width="195" height="30" viewBox="0 0 195 30" fill="none" xmlns="http://www.w3.org/2000/svg">
<path d="M9.40851 9.5098C12.1897 9.5098 14.4998 10.9452 15.5988 12.4928V9.89108H19.8379V29.202H16.7876C16.6283 29.2027 16.4706 29.1718 16.3233 29.1111C16.1761 29.0505 16.0423 28.9613 15.9297 28.8487C15.8171 28.7361 15.7279 28.6024 15.6673 28.4551C15.6066 28.3079 15.5758 28.1501 15.5764 27.9909V26.6003C14.4998 28.1703 12.1897 29.6057 9.40851 29.6057C4.11533 29.6057 0.100586 25.0752 0.100586 19.5578C0.100586 14.0403 4.11533 9.5098 9.40851 9.5098ZM10.1711 13.3675C6.73949 13.3675 4.4069 16.0813 4.4069 19.5578C4.4069 23.0342 6.71707 25.748 10.1711 25.748C13.6027 25.748 15.9353 23.0342 15.9353 19.5578C15.9353 16.0813 13.6251 13.3675 10.1711 13.3675V13.3675ZM24.6601 9.89108H28.9215V12.5152C30.0878 10.5864 32.2858 9.5098 34.7979 9.5098C39.2836 9.5098 42.1769 12.6722 42.1769 17.584V29.202H39.1266C38.9674 29.2027 38.8096 29.1718 38.6623 29.1111C38.5151 29.0505 38.3813 28.9613 38.2687 28.8487C38.1561 28.7361 38.0669 28.6024 38.0063 28.4551C37.9457 28.3079 37.9148 28.1501 37.9154 27.9909V18.2793C37.9154 15.2291 36.3679 13.3675 33.9007 13.3675C31.0747 13.3675 28.9215 15.5655 28.9215 19.6923V29.202H25.8712C25.712 29.2027 25.5542 29.1718 25.407 29.1111C25.2597 29.0505 25.1259 28.9613 25.0133 28.8487C24.9007 28.7361 24.8116 28.6024 24.7509 28.4551C24.6903 28.3079 24.6594 28.1501 24.6601 27.9909V9.89108ZM54.8491 9.5098C57.6303 9.5098 59.9405 10.9452 61.0395 12.4928V0.246835H65.2785V29.2244H62.2282C62.069 29.2251 61.9112 29.1942 61.7639 29.1336C61.6167 29.0729 61.4829 28.9837 61.3703 28.8712C61.2577 28.7586 61.1686 28.6248 61.1079 28.4775C61.0473 28.3303 61.0164 28.1725 61.0171 28.0133V26.6227C59.9405 28.1703 57.6079 29.6057 54.8267 29.6057C49.5335 29.6057 45.5188 25.0752 45.5188 19.5578C45.5412 14.0403 49.556 9.5098 54.8491 9.5098V9.5098ZM55.6117 13.3675C52.1801 13.3675 49.8475 16.0813 49.8475 19.5578C49.8475 23.0342 52.1577 25.748 55.6117 25.748C59.0433 25.748 61.3759 23.0342 61.3759 19.5578C61.3759 16.0813 59.0433 13.3675 55.6117 13.3675V13.3675ZM70.1007 9.89108H74.3397V13.3226C74.7116 12.2669 75.4 11.3515 76.3111 10.7013C77.2222 10.051 78.3117 9.69763 79.4311 9.68922C79.9881 9.68793 80.5439 9.74051 81.0908 9.84622V14.2198C80.404 13.9882 79.6848 13.8671 78.96 13.8609C76.5153 13.8609 74.3173 15.9019 74.3173 19.782V29.202H71.267C71.1078 29.2027 70.95 29.1718 70.8027 29.1111C70.6555 29.0505 70.5217 28.9613 70.4091 28.8487C70.2965 28.7361 70.2073 28.6024 70.1467 28.4551C70.0861 28.3079 70.0552 28.1501 70.0558 27.9909V9.89108H70.1007ZM92.5743 29.6057C86.855 29.6057 82.4589 25.1649 82.4589 19.5578C82.4589 13.9506 86.855 9.5098 92.5743 9.5098C98.2936 9.5098 102.69 13.9506 102.69 19.5578C102.69 25.1649 98.2936 29.6057 92.5743 29.6057ZM92.5743 25.6583C95.9835 25.6583 98.3609 22.9893 98.3609 19.5578C98.3609 16.1262 95.961 13.4572 92.5743 13.4572C89.1427 13.4572 86.7428 16.1262 86.7428 19.5578C86.7428 22.9893 89.1427 25.6583 92.5743 25.6583ZM108.252 5.67453C107.498 5.66965 106.776 5.36798 106.243 4.83485C105.71 4.30173 105.408 3.58005 105.404 2.82611C105.417 2.07691 105.722 1.36246 106.254 0.834712C106.786 0.30696 107.503 0.00753802 108.252 0.00012207C109.004 0.000122082 109.726 0.299041 110.258 0.831119C110.79 1.3632 111.089 2.08485 111.089 2.83732C111.089 3.5898 110.79 4.31145 110.258 4.84353C109.726 5.37561 109.004 5.67453 108.252 5.67453V5.67453ZM106.144 9.89108H110.383V29.202H107.355C107.196 29.2027 107.038 29.1718 106.891 29.1111C106.743 29.0505 106.61 28.9613 106.497 28.8487C106.384 28.7361 106.295 28.6024 106.235 28.4551C106.174 28.3079 106.143 28.1501 106.144 27.9909V9.89108V9.89108ZM123.19 9.5098C125.971 9.5098 128.281 10.9452 129.38 12.4928V0.246835H133.619V29.2244H130.569C130.409 29.2251 130.252 29.1942 130.104 29.1336C129.957 29.0729 129.823 28.9837 129.711 28.8712C129.598 28.7586 129.509 28.6248 129.448 28.4775C129.388 28.3303 129.357 28.1725 129.357 28.0133V26.6227C128.281 28.1703 125.948 29.6057 123.167 29.6057C117.874 29.6057 113.859 25.0752 113.859 19.5578C113.882 14.0403 117.896 9.5098 123.19 9.5098V9.5098ZM123.975 13.3675C120.543 13.3675 118.21 16.0813 118.21 19.5578C118.21 23.0342 120.521 25.748 123.975 25.748C127.406 25.748 129.739 23.0342 129.739 19.5578C129.739 16.0813 127.406 13.3675 123.975 13.3675" fill="#737373"/>
<path d="M180.517 21.9128C180.091 21.9128 179.675 21.7865 179.321 21.5499C178.967 21.3133 178.691 20.9771 178.528 20.5836C178.365 20.1902 178.322 19.7573 178.406 19.3396C178.489 18.9219 178.694 18.5383 178.995 18.2371C179.296 17.936 179.68 17.731 180.097 17.6479C180.515 17.5648 180.948 17.6074 181.341 17.7704C181.735 17.9334 182.071 18.2093 182.308 18.5634C182.544 18.9175 182.671 19.3338 182.671 19.7596C182.671 20.3307 182.444 20.8784 182.04 21.2821C181.636 21.6859 181.088 21.9128 180.517 21.9128V21.9128ZM156.81 21.9128C156.384 21.9128 155.968 21.7865 155.614 21.5499C155.26 21.3133 154.984 20.9771 154.821 20.5836C154.658 20.1902 154.615 19.7573 154.698 19.3396C154.781 18.9219 154.986 18.5383 155.288 18.2371C155.589 17.936 155.972 17.731 156.39 17.6479C156.808 17.5648 157.241 17.6074 157.634 17.7704C158.028 17.9334 158.364 18.2093 158.6 18.5634C158.837 18.9175 158.963 19.3338 158.963 19.7596C158.963 20.3307 158.736 20.8784 158.333 21.2821C157.929 21.6859 157.381 21.9128 156.81 21.9128V21.9128ZM181.28 8.99391L185.586 1.57004C185.644 1.46839 185.682 1.35626 185.696 1.24009C185.711 1.12392 185.703 1.00601 185.672 0.893116C185.641 0.780224 185.587 0.674583 185.515 0.58226C185.443 0.489937 185.354 0.412751 185.252 0.355138C185.15 0.297524 185.038 0.260617 184.921 0.246537C184.805 0.232458 184.687 0.241483 184.575 0.273094C184.462 0.304705 184.356 0.358279 184.265 0.430739C184.173 0.503199 184.096 0.593117 184.039 0.695327L179.687 8.20891C176.232 6.62971 172.474 5.8186 168.675 5.83148C164.871 5.82217 161.109 6.62506 157.64 8.18648L153.289 0.672898C153.172 0.468887 152.98 0.319358 152.753 0.257014C152.526 0.194669 152.284 0.224582 152.08 0.34021C151.875 0.455839 151.725 0.647773 151.661 0.874037C151.598 1.1003 151.627 1.34248 151.741 1.54761L156.025 8.97148C152.321 10.9916 149.179 13.9036 146.884 17.4439C144.589 20.9842 143.214 25.041 142.882 29.2469H194.401C194.079 25.044 192.71 20.9885 190.418 17.4507C188.126 13.9129 184.984 11.0055 181.28 8.99391" fill="#737373"/>
</svg>
