<svg width="22" height="16" viewBox="0 0 22 16" fill="none" xmlns="http://www.w3.org/2000/svg">
<path d="M3.57501 0.000488288H18.4251C19.3382 0.000433935 20.2168 0.318042 20.8805 0.88816C21.5443 1.45828 21.9429 2.23768 21.9946 3.06649L22.0001 3.25049V12.7505C22.0001 13.5806 21.6507 14.3793 21.0236 14.9827C20.3965 15.5861 19.5391 15.9485 18.6275 15.9955L18.4251 16.0005H3.57501C2.66186 16.0005 1.78329 15.6829 1.11955 15.1128C0.455805 14.5427 0.0571987 13.7633 0.00550015 12.9345L7.67272e-09 12.7505V3.25049C-5.97816e-05 2.42035 0.34931 1.62166 0.976442 1.01826C1.60357 0.414855 2.46092 0.052487 3.37261 0.0054884L3.57501 0.000488288ZM20.3501 5.37349L11.385 9.66349C11.2838 9.7121 11.1726 9.74103 11.0584 9.74843C10.9442 9.75584 10.8295 9.74155 10.7217 9.70649L10.6161 9.66449L1.65 5.37449V12.7505C1.65002 13.1897 1.83169 13.6128 2.15895 13.9359C2.48621 14.259 2.93514 14.4583 3.41661 14.4945L3.57501 14.5005H18.4251C18.9083 14.5005 19.3739 14.3352 19.7293 14.0374C20.0847 13.7397 20.304 13.3314 20.3435 12.8935L20.3501 12.7505V5.37349ZM18.4251 1.50049H3.57501C3.0919 1.5005 2.62646 1.66566 2.27108 1.96317C1.91569 2.26068 1.69636 2.66879 1.6566 3.10649L1.65 3.25049V3.67949L11 8.15249L20.3501 3.67849V3.25049C20.35 2.81114 20.1682 2.38788 19.8407 2.06478C19.5132 1.74168 19.064 1.54239 18.5823 1.50649L18.4251 1.50049Z" fill="#006AFF"/>
</svg>
