<svg width="56" height="20" viewBox="0 0 56 20" fill="none" xmlns="http://www.w3.org/2000/svg">
<path fill-rule="evenodd" clip-rule="evenodd" d="M5.3875 0.888494C6.365 0.843496 6.67666 0.833496 9.16666 0.833496C11.6567 0.833496 11.9683 0.844329 12.945 0.888494C13.9217 0.932658 14.5883 1.08848 15.1717 1.31431C15.7825 1.54513 16.3367 1.90595 16.795 2.37259C17.2617 2.83007 17.6217 3.38338 17.8517 3.99502C18.0783 4.57833 18.2333 5.24497 18.2783 6.21992C18.3233 7.19905 18.3333 7.5107 18.3333 9.99976C18.3333 12.4896 18.3225 12.8013 18.2783 13.7788C18.2342 14.7537 18.0783 15.4203 17.8517 16.0037C17.6217 16.6154 17.2611 17.1696 16.795 17.6278C16.3367 18.0944 15.7825 18.4544 15.1717 18.6844C14.5883 18.911 13.9217 19.066 12.9467 19.111C11.9683 19.156 11.6567 19.166 9.16666 19.166C6.67666 19.166 6.365 19.1552 5.3875 19.111C4.4125 19.0669 3.74583 18.911 3.1625 18.6844C2.55077 18.4544 1.99652 18.0938 1.53833 17.6278C1.07198 17.17 0.711095 16.616 0.480833 16.0045C0.255 15.4212 0.1 14.7545 0.055 13.7796C0.00999998 12.8005 0 12.4888 0 9.99976C0 7.50987 0.0108333 7.19821 0.055 6.22159C0.0991666 5.24497 0.255 4.57833 0.480833 3.99502C0.711435 3.38345 1.0726 2.8295 1.53917 2.37176C1.9967 1.90553 2.55039 1.54467 3.16167 1.31431C3.745 1.08848 4.41167 0.933492 5.38667 0.888494H5.3875ZM12.8708 2.53842C11.9042 2.49426 11.6142 2.48509 9.16666 2.48509C6.71916 2.48509 6.42916 2.49426 5.4625 2.53842C4.56833 2.57925 4.08333 2.72841 3.76 2.85424C3.3325 3.0209 3.02667 3.21839 2.70583 3.53921C2.4017 3.83507 2.16765 4.19525 2.02083 4.59333C1.895 4.91665 1.74583 5.40163 1.705 6.29575C1.66083 7.26238 1.65167 7.55236 1.65167 9.99976C1.65167 12.4471 1.66083 12.7371 1.705 13.7038C1.74583 14.5979 1.895 15.0829 2.02083 15.4062C2.1675 15.8037 2.40167 16.1645 2.70583 16.4603C3.00167 16.7645 3.3625 16.9986 3.76 17.1453C4.08333 17.2711 4.56833 17.4203 5.4625 17.4611C6.42916 17.5053 6.71833 17.5144 9.16666 17.5144C11.615 17.5144 11.9042 17.5053 12.8708 17.4611C13.765 17.4203 14.25 17.2711 14.5733 17.1453C15.0008 16.9786 15.3067 16.7811 15.6275 16.4603C15.9317 16.1645 16.1658 15.8037 16.3125 15.4062C16.4383 15.0829 16.5875 14.5979 16.6283 13.7038C16.6725 12.7371 16.6817 12.4471 16.6817 9.99976C16.6817 7.55236 16.6725 7.26238 16.6283 6.29575C16.5875 5.40163 16.4383 4.91665 16.3125 4.59333C16.1458 4.16585 15.9483 3.86003 15.6275 3.53921C15.3316 3.23512 14.9714 3.00108 14.5733 2.85424C14.25 2.72841 13.765 2.57925 12.8708 2.53842ZM7.99583 12.8255C8.64971 13.0976 9.37781 13.1344 10.0558 12.9294C10.7337 12.7244 11.3195 12.2904 11.713 11.7015C12.1065 11.1127 12.2834 10.4055 12.2134 9.70069C12.1434 8.99592 11.8308 8.33731 11.3292 7.83735C11.0094 7.51776 10.6227 7.27305 10.1969 7.12084C9.77121 6.96863 9.31702 6.91269 8.86708 6.95707C8.41713 7.00145 7.98262 7.14503 7.59483 7.37748C7.20704 7.60993 6.87562 7.92547 6.62442 8.30137C6.37322 8.67728 6.20849 9.1042 6.14209 9.55141C6.0757 9.99862 6.10929 10.455 6.24045 10.8876C6.3716 11.3203 6.59707 11.7185 6.9006 12.0536C7.20413 12.3887 7.57819 12.6523 7.99583 12.8255ZM5.835 6.66824C6.27252 6.23074 6.79193 5.88369 7.36358 5.64692C7.93523 5.41014 8.54792 5.28828 9.16666 5.28828C9.78541 5.28828 10.3981 5.41014 10.9697 5.64692C11.5414 5.88369 12.0608 6.23074 12.4983 6.66824C12.9359 7.10574 13.2829 7.62513 13.5197 8.19675C13.7565 8.76837 13.8784 9.38104 13.8784 9.99976C13.8784 10.6185 13.7565 11.2311 13.5197 11.8028C13.2829 12.3744 12.9359 12.8938 12.4983 13.3313C11.6147 14.2148 10.4163 14.7112 9.16666 14.7112C7.91705 14.7112 6.71861 14.2148 5.835 13.3313C4.95139 12.4477 4.45498 11.2493 4.45498 9.99976C4.45498 8.75019 4.95139 7.55181 5.835 6.66824ZM14.9233 5.98993C15.0317 5.88766 15.1185 5.76468 15.1786 5.62826C15.2386 5.49185 15.2707 5.34477 15.2728 5.19574C15.275 5.04672 15.2473 4.89877 15.1912 4.76066C15.1352 4.62256 15.052 4.49709 14.9466 4.3917C14.8412 4.28632 14.7158 4.20314 14.5777 4.14711C14.4395 4.09108 14.2916 4.06333 14.1426 4.06551C13.9935 4.06768 13.8464 4.09973 13.71 4.15976C13.5736 4.21979 13.4506 4.30659 13.3483 4.415C13.1494 4.62585 13.0405 4.90592 13.0447 5.19574C13.049 5.48557 13.166 5.76234 13.371 5.9673C13.5759 6.17227 13.8527 6.28928 14.1426 6.2935C14.4324 6.29773 14.7125 6.18883 14.9233 5.98993Z" fill="#141516"/>
<path fill-rule="evenodd" clip-rule="evenodd" d="M35.1665 10.0556C35.1665 15.0271 38.7773 19.1612 43.4998 19.9995V12.7772H40.9998V9.99976H43.4998V7.77731C43.4998 5.27737 45.1107 3.88907 47.389 3.88907C48.1107 3.88907 48.889 3.9999 49.6107 4.11073V6.6665H48.3332C47.1107 6.6665 46.8332 7.27732 46.8332 8.05564V9.99976H49.4998L49.0557 12.7772H46.8332V19.9995C51.5557 19.1612 55.1665 15.028 55.1665 10.0556C55.1665 4.52489 50.6665 0 45.1665 0C39.6665 0 35.1665 4.52489 35.1665 10.0556Z" fill="#141516"/>
</svg>
