<svg width="97" height="26" viewBox="0 0 97 26" fill="none" xmlns="http://www.w3.org/2000/svg">
<path fill-rule="evenodd" clip-rule="evenodd" d="M52.0818 10.4996C48.8522 10.5114 47.6249 14.1814 47.6421 16.6594C47.658 19.0174 48.8324 22.6796 52.1095 22.6939C55.2862 22.707 56.6854 18.9638 56.6444 16.2508C56.602 13.5717 55.1843 10.4918 52.0818 10.4996V10.4996ZM60.8406 16.4244C60.8406 21.669 57.7182 25.672 52.0857 25.672C46.6516 25.672 43.5371 21.7944 43.5371 16.6934C43.5371 11.6551 46.805 7.48892 52.0064 7.45889C57.5688 7.42625 60.8406 11.1485 60.8406 16.4244V16.4244Z" fill="#737373"/>
<path fill-rule="evenodd" clip-rule="evenodd" d="M19.1835 5.38306C17.5727 4.04483 14.7002 4.03047 12.8183 4.4104V12.8745C15.6101 13.3419 18.7061 12.9711 19.9188 10.5963C20.7559 8.95384 20.6462 6.59856 19.1835 5.38306V5.38306ZM19.2152 15.6176C17.3558 16.2364 14.4595 16.414 12.8183 16.0288V25.2998H8.82568V1.48979C11.9269 1.02109 15.2755 0.754749 18.4468 1.29918C22.0811 1.92325 24.5197 4.43912 24.5145 8.19138C24.5092 11.642 22.7 14.4608 19.2152 15.6176V15.6176Z" fill="#737373"/>
<path fill-rule="evenodd" clip-rule="evenodd" d="M5.35785 7.83344V25.2998H1.36523V7.83344H5.35785Z" fill="#737373"/>
<path fill-rule="evenodd" clip-rule="evenodd" d="M5.34199 4.29793C4.86589 4.89588 4.12133 5.21574 3.37676 5.23401C2.58459 5.25229 1.79241 4.9259 1.3269 4.22743C0.770125 3.39318 0.734417 2.16988 1.3626 1.36566C1.82415 0.775551 2.55549 0.476579 3.29609 0.463524C4.06049 0.449162 4.83415 0.73769 5.33009 1.31605C6.03498 2.13463 6.00853 3.46107 5.34199 4.29793V4.29793Z" fill="#737373"/>
<path fill-rule="evenodd" clip-rule="evenodd" d="M92.2634 14.7323C92.2634 13.5624 91.8204 11.9748 90.8179 11.134C89.502 10.0308 87.427 10.1313 86.1005 11.2032C85.106 12.0062 84.3985 13.4371 84.4209 14.7323H92.2634V14.7323ZM96.0577 17.5707H84.4209C84.4209 20.4822 86.041 22.3453 89.1912 22.5463C90.8324 22.6508 92.9127 22.2969 94.4865 21.7199L95.1888 24.5217C93.693 25.3442 91.1406 25.6471 89.2296 25.6432C83.9369 25.6354 80.3701 22.4353 80.3701 16.816C80.3701 13.5951 81.5207 10.6235 83.9038 8.90404C86.525 7.01091 90.8443 6.88688 93.3902 8.98499C95.4202 10.6588 96.1767 13.488 96.0947 16.2533L96.0577 17.5707V17.5707Z" fill="#737373"/>
<path fill-rule="evenodd" clip-rule="evenodd" d="M37.4904 14.9647C37.4904 12.4554 36.193 10.792 34.0559 10.792C32.8127 10.792 30.1572 11.4174 30.1572 15.7481V25.2619H26.2161L26.1646 0H30.1572V10.3142C31.2853 8.46156 33.1315 7.54111 35.3361 7.54111C39.6223 7.54111 41.483 10.4408 41.483 14.8041V25.2998H37.4904V14.9647V14.9647Z" fill="#737373"/>
<path fill-rule="evenodd" clip-rule="evenodd" d="M74.305 15.1148C74.305 12.6668 73.251 10.792 70.84 10.792C69.7741 10.792 67.4095 11.4369 67.0022 14.7923V25.2998H63.0096C62.9884 19.4912 63.0056 13.6421 62.8535 7.83347H66.4242C66.5142 8.71345 66.575 9.59342 66.6081 10.4734C67.8221 8.47321 69.8786 7.54102 72.1189 7.54102C76.0242 7.54102 78.2963 10.2149 78.2963 14.3523V25.2998H74.3037V15.1148H74.305V15.1148Z" fill="#737373"/>
</svg>
