<svg width="45" height="24" viewBox="0 0 45 24" fill="none" xmlns="http://www.w3.org/2000/svg">
<circle cx="3" cy="12" r="3" fill="#FF0000"/>
<path d="M12.536 18C12.3227 18 12.168 17.952 12.072 17.856C11.9867 17.76 11.944 17.616 11.944 17.424V7.712C11.944 7.50933 11.9867 7.36 12.072 7.264C12.168 7.168 12.3227 7.12 12.536 7.12H13.384C13.5973 7.12 13.752 7.168 13.848 7.264C13.944 7.36 13.992 7.50933 13.992 7.712V16.448H18.888C19.1013 16.448 19.2507 16.496 19.336 16.592C19.4213 16.6773 19.464 16.8213 19.464 17.024V17.456C19.464 17.648 19.4213 17.7867 19.336 17.872C19.2507 17.9573 19.1013 18 18.888 18H12.536ZM21.3016 18C21.0883 18 20.9336 17.952 20.8376 17.856C20.7523 17.76 20.7096 17.616 20.7096 17.424V7.712C20.7096 7.50933 20.7523 7.36 20.8376 7.264C20.9336 7.168 21.0883 7.12 21.3016 7.12H22.1496C22.363 7.12 22.5176 7.168 22.6136 7.264C22.7096 7.36 22.7576 7.50933 22.7576 7.712V17.424C22.7576 17.616 22.7096 17.76 22.6136 17.856C22.5283 17.952 22.3736 18 22.1496 18H21.3016ZM29.0631 18C28.9138 18 28.8018 17.9733 28.7271 17.92C28.6631 17.8667 28.5991 17.76 28.5351 17.6L24.3751 7.568C24.3431 7.504 24.3271 7.44 24.3271 7.376C24.3271 7.30133 24.3485 7.24267 24.3911 7.2C24.4445 7.14667 24.5138 7.12 24.5991 7.12H25.9751C26.1138 7.12 26.2205 7.14667 26.2951 7.2C26.3698 7.25333 26.4285 7.33867 26.4711 7.456L29.4951 15.136L32.5191 7.456C32.5618 7.33867 32.6205 7.25333 32.6951 7.2C32.7698 7.14667 32.8765 7.12 33.0151 7.12H34.3911C34.4765 7.12 34.5405 7.14667 34.5831 7.2C34.6365 7.24267 34.6631 7.30133 34.6631 7.376C34.6631 7.44 34.6471 7.504 34.6151 7.568L30.4711 17.6C30.4071 17.76 30.3378 17.8667 30.2631 17.92C30.1885 17.9733 30.0765 18 29.9271 18H29.0631ZM36.5829 18C36.3695 18 36.2149 17.952 36.1189 17.856C36.0335 17.76 35.9909 17.616 35.9909 17.424V7.712C35.9909 7.50933 36.0335 7.36 36.1189 7.264C36.2149 7.168 36.3695 7.12 36.5829 7.12H43.2389C43.4522 7.12 43.5962 7.16267 43.6709 7.248C43.7562 7.33333 43.7989 7.47733 43.7989 7.68V8.112C43.7989 8.31467 43.7562 8.464 43.6709 8.56C43.5962 8.64533 43.4522 8.688 43.2389 8.688H38.0389V11.792H41.8149C42.0282 11.792 42.1775 11.8347 42.2629 11.92C42.3482 12.0053 42.3909 12.1493 42.3909 12.352V12.752C42.3909 12.9547 42.3482 13.104 42.2629 13.2C42.1775 13.2853 42.0282 13.328 41.8149 13.328H38.0389V16.448H43.2229C43.4362 16.448 43.5855 16.496 43.6709 16.592C43.7562 16.6773 43.7989 16.8213 43.7989 17.024V17.456C43.7989 17.648 43.7562 17.7867 43.6709 17.872C43.5855 17.9573 43.4362 18 43.2229 18H36.5829Z" fill="#141516"/>
</svg>
