<svg width="83" height="31" viewBox="0 0 83 31" fill="none" xmlns="http://www.w3.org/2000/svg">
<path d="M17.387 4.97355C18.5595 3.58395 19.1405 1.80175 19.0084 0C17.2114 0.170745 15.5526 1.02366 14.3836 2.37794C13.8015 3.02664 13.3553 3.78218 13.0707 4.60115C12.7862 5.42012 12.6688 6.28638 12.7253 7.15015C13.6205 7.16742 14.5075 6.97981 15.3165 6.6021C16.1254 6.22438 16.8342 5.66689 17.387 4.97355V4.97355ZM18.8979 7.47846C16.3183 7.33154 14.1441 8.92953 12.9096 8.92953C11.6751 8.92953 9.79569 7.55827 7.7689 7.59454C6.44179 7.63136 5.14775 8.0104 4.01607 8.69378C2.8844 9.37717 1.95474 10.341 1.31999 11.4889C-1.44383 16.2048 0.582971 23.2298 3.27309 27.0697C4.58129 28.8944 6.14746 31.0692 8.22953 30.9985C10.3116 30.9278 10.9565 29.7288 13.3334 29.7288C15.7103 29.7288 16.4104 30.9985 18.4741 30.9532C20.5377 30.9078 21.9749 29.1248 23.2647 27.1441C24.195 25.7912 24.9212 24.3127 25.4205 22.7546C24.1815 22.2146 23.1275 21.3336 22.3854 20.2175C21.6433 19.1015 21.2448 17.7981 21.2379 16.4642C21.2532 15.2807 21.5698 14.1199 22.1589 13.0881C22.748 12.0563 23.5907 11.1865 24.6098 10.5584C23.9623 9.64699 23.1102 8.89474 22.1196 8.35998C21.129 7.82522 20.0266 7.52234 18.8979 7.47483V7.47846ZM35.3518 3.81813V8.99664H39.5528V12.4157H35.3518V24.6682C35.3518 26.4966 36.1809 27.4289 38.0235 27.4289C38.5288 27.4199 39.0331 27.3835 39.5344 27.32V30.7663C38.7121 30.8974 37.8798 30.9581 37.0469 30.9477C32.6985 30.9477 31.0218 29.2844 31.0218 25.1144V12.4973H27.7237V9.06919H30.9297V3.82176L35.3518 3.81813ZM54.2379 30.7591H49.6315L41.8928 9.06919H46.4808L51.9163 26.4966H52.0268L57.4623 9.06919H61.9581L54.2379 30.7591ZM74.469 30.7591H70.4891V21.8713H61.9397V17.957H70.4707V9.06919H74.4506V17.957H83V21.8713H74.469V30.7591Z" fill="#737373"/>
</svg>
