<svg width="32" height="26" viewBox="0 0 32 26" fill="none" xmlns="http://www.w3.org/2000/svg">
<path d="M4.72728 1.00753e-08H27.2728C28.4803 -7.85008e-05 29.642 0.458689 30.5197 1.28219C31.3973 2.1057 31.9244 3.2315 31.9928 4.42867L32.0001 4.69444V21.3056C32.0001 22.5046 31.5382 23.6583 30.7089 24.5299C29.8796 25.4015 28.746 25.9249 27.5404 25.9928L27.2728 26H4.72728C3.51981 26.0001 2.35807 25.5413 1.48039 24.7178C0.602717 23.8943 0.0756346 22.7685 0.00727292 21.5713L1.01457e-08 21.3056V4.69444C-7.90499e-05 3.49536 0.461898 2.34169 1.29116 1.47011C2.12042 0.59853 3.25411 0.0751092 4.45964 0.0072224L4.72728 1.00753e-08H27.2728H4.72728ZM29.8182 8.52944L16.5033 15.405C16.3743 15.4716 16.2333 15.5118 16.0884 15.5235C15.9435 15.5352 15.7977 15.518 15.6597 15.4729L15.4968 15.405L2.18182 8.52944V21.3056C2.18185 21.9399 2.42207 22.5511 2.85481 23.0178C3.28755 23.4844 3.88117 23.7725 4.51783 23.8247L4.72728 23.8333H27.2728C27.9118 23.8333 28.5275 23.5945 28.9974 23.1645C29.4674 22.7345 29.7573 22.1446 29.8095 21.5121L29.8182 21.3056V8.52944ZM27.2728 2.16667H4.72728C4.08846 2.16669 3.473 2.40525 3.00307 2.83498C2.53315 3.26472 2.24312 3.85421 2.19055 4.48644L2.18182 4.69444V6.08689L16 13.2224L29.8182 6.08689V4.69444C29.8182 4.05983 29.5778 3.44845 29.1447 2.98176C28.7117 2.51506 28.1177 2.22719 27.4808 2.17533L27.2728 2.16667Z" fill="#141516"/>
</svg>
