<svg width="22" height="22" viewBox="0 0 22 22" fill="none" xmlns="http://www.w3.org/2000/svg">
<path d="M11.825 9.625C11.275 9.4875 10.725 9.2125 10.3125 8.8C9.90001 8.6625 9.76251 8.25 9.76251 7.975C9.76251 7.7 9.90001 7.2875 10.175 7.15C10.5875 6.875 11 6.6 11.4125 6.7375C12.2375 6.7375 12.925 7.15 13.3375 7.7L14.575 6.05C14.1625 5.6375 13.75 5.3625 13.3375 5.0875C12.925 4.8125 12.375 4.675 11.825 4.675V2.75H10.175V4.675C9.48751 4.8125 8.80001 5.225 8.25001 5.775C7.70001 6.4625 7.28751 7.2875 7.42501 8.1125C7.42501 8.9375 7.70001 9.7625 8.25001 10.3125C8.93751 11 9.90001 11.4125 10.725 11.825C11.1375 11.9625 11.6875 12.2375 12.1 12.5125C12.375 12.7875 12.5125 13.2 12.5125 13.6125C12.5125 14.025 12.375 14.4375 12.1 14.85C11.6875 15.2625 11.1375 15.4 10.725 15.4C10.175 15.4 9.48751 15.2625 9.07501 14.85C8.66251 14.575 8.25001 14.1625 7.97501 13.75L6.60001 15.2625C7.01251 15.8125 7.42501 16.225 7.97501 16.6375C8.66251 17.05 9.48751 17.4625 10.3125 17.4625V19.25H11.825V17.1875C12.65 17.05 13.3375 16.6375 13.8875 16.0875C14.575 15.4 14.9875 14.3 14.9875 13.3375C14.9875 12.5125 14.7125 11.55 14.025 11C13.3375 10.3125 12.65 9.9 11.825 9.625ZM11 0C4.95001 0 0 4.95 0 11C0 17.05 4.95001 22 11 22C17.05 22 22 17.05 22 11C22 4.95 17.05 0 11 0ZM11 20.4875C5.77501 20.4875 1.5125 16.225 1.5125 11C1.5125 5.775 5.77501 1.5125 11 1.5125C16.225 1.5125 20.4875 5.775 20.4875 11C20.4875 16.225 16.225 20.4875 11 20.4875Z" fill="#006AFF"/>
</svg>
