<svg width="22" height="20" viewBox="0 0 22 20" fill="none" xmlns="http://www.w3.org/2000/svg">
<path d="M0.687501 12.2388C0.869838 12.2388 1.04471 12.3112 1.17364 12.4401C1.30257 12.5691 1.375 12.7439 1.375 12.9263V16.3638C1.375 16.7284 1.51987 17.0782 1.77773 17.336C2.03559 17.5939 2.38533 17.7388 2.75 17.7388H19.25C19.6147 17.7388 19.9644 17.5939 20.2223 17.336C20.4802 17.0782 20.625 16.7284 20.625 16.3638V12.9263C20.625 12.7439 20.6975 12.5691 20.8264 12.4401C20.9553 12.3112 21.1302 12.2388 21.3125 12.2388C21.4949 12.2388 21.6697 12.3112 21.7987 12.4401C21.9276 12.5691 22 12.7439 22 12.9263V16.3638C22 17.0931 21.7103 17.7926 21.1946 18.3083C20.6788 18.824 19.9794 19.1138 19.25 19.1138H2.75C2.02066 19.1138 1.32118 18.824 0.805457 18.3083C0.289732 17.7926 0 17.0931 0 16.3638V12.9263C0 12.7439 0.0724329 12.5691 0.201364 12.4401C0.330296 12.3112 0.505164 12.2388 0.687501 12.2388Z" fill="#006AFF"/>
<path d="M10.5132 0.201979C10.577 0.137954 10.6529 0.087158 10.7364 0.0524992C10.8199 0.0178403 10.9095 0 10.9999 0C11.0903 0 11.1799 0.0178403 11.2634 0.0524992C11.3469 0.087158 11.4228 0.137954 11.4867 0.201979L15.6117 4.32698C15.7408 4.45607 15.8133 4.63116 15.8133 4.81373C15.8133 4.99629 15.7408 5.17138 15.6117 5.30048C15.4826 5.42957 15.3075 5.50209 15.1249 5.50209C14.9424 5.50209 14.7673 5.42957 14.6382 5.30048L11.6874 2.34835V14.4387C11.6874 14.6211 11.615 14.7959 11.486 14.9249C11.3571 15.0538 11.1822 15.1262 10.9999 15.1262C10.8176 15.1262 10.6427 15.0538 10.5138 14.9249C10.3848 14.7959 10.3124 14.6211 10.3124 14.4387V2.34835L7.36165 5.30048C7.29773 5.3644 7.22184 5.4151 7.13832 5.4497C7.05481 5.48429 6.96529 5.50209 6.87489 5.50209C6.7845 5.50209 6.69498 5.48429 6.61147 5.4497C6.52795 5.4151 6.45206 5.3644 6.38814 5.30048C6.32422 5.23656 6.27352 5.16067 6.23892 5.07715C6.20433 4.99364 6.18652 4.90412 6.18652 4.81373C6.18652 4.72333 6.20433 4.63382 6.23892 4.5503C6.27352 4.46678 6.32422 4.3909 6.38814 4.32698L10.5132 0.201979Z" fill="#006AFF"/>
</svg>
